<svg xmlns="http://www.w3.org/2000/svg" xmlns:xlink="http://www.w3.org/1999/xlink"><symbol id="bust" viewBox="0 0 16 16"><path d="M12.136 11.438c2.115.746 3.173 1.379 3.173 1.897v1.649H.687v-1.649c0-.518 1.058-1.151 3.173-1.897.975-.353 1.639-.711 1.991-1.074.353-.363.529-.855.529-1.477 0-.229-.114-.483-.342-.763-.228-.28-.394-.658-.498-1.135a.444.444 0 0 0-.14-.28.593.593 0 0 0-.217-.125c-.073-.02-.146-.109-.218-.264-.073-.156-.119-.379-.14-.669a.9.9 0 0 1 .078-.404c.051-.104.098-.166.14-.187l.062-.062a26.717 26.717 0 0 1-.187-1.369c-.041-.56.171-1.141.638-1.742.467-.602 1.281-.903 2.442-.903 1.162 0 1.981.301 2.458.903.477.601.684 1.182.622 1.742l-.187 1.369c.187.083.28.3.28.653-.02.29-.067.513-.14.669-.072.155-.145.244-.217.264a.588.588 0 0 0-.218.125.449.449 0 0 0-.14.28c-.083.498-.244.881-.482 1.151-.239.27-.358.518-.358.747 0 .622.181 1.114.544 1.477.363.363 1.022.721 1.976 1.074z" fill-rule="nonzero"/></symbol><symbol id="caret-down" viewBox="0 0 16 16"><path d="M8 11l4-4H4l4 4z"/></symbol><symbol id="caret-up" viewBox="0 0 16 16"><path d="M8 5l4 4H4l4-4z"/></symbol><symbol id="clipboard" viewBox="0 0 16 16"><path d="M12.2 2c.28 0 .525.105.735.315.21.21.315.455.315.735v11.4c0 .3-.105.55-.315.75-.21.2-.455.3-.735.3H3.8c-.28 0-.525-.1-.735-.3a.993.993 0 0 1-.315-.75V3.05c0-.28.105-.525.315-.735.21-.21.455-.315.735-.315l.9 2.25h6.6L12.2 2zm-1.5 1.5H5.3L4.64 2h1.62L6.8.5h2.4L9.74 2h1.65l-.69 1.5z" fill-rule="nonzero"/></symbol><symbol id="cog" viewBox="0 0 16 16"><path d="M13.665 8c0 .8.444 1.478 1.333 2.033-.133.445-.322.9-.567 1.367-.777-.2-1.533.044-2.266.733-.6.645-.789 1.4-.567 2.267-.444.222-.911.422-1.4.6-.511-.911-1.244-1.367-2.2-1.367-.955 0-1.689.456-2.2 1.367a13.394 13.394 0 0 1-1.4-.6c.222-.889.033-1.644-.567-2.267-.6-.6-1.355-.789-2.266-.566-.156-.289-.345-.745-.567-1.367.911-.578 1.367-1.311 1.367-2.2 0-.8-.456-1.489-1.367-2.067.222-.622.411-1.077.567-1.366.822.2 1.578-.045 2.266-.734.6-.622.789-1.377.567-2.266A7.342 7.342 0 0 1 5.798 1c.511.889 1.245 1.333 2.2 1.333.956 0 1.689-.444 2.2-1.333.467.133.933.322 1.4.567-.222.866-.033 1.622.567 2.266.733.689 1.489.934 2.266.734.245.466.434.922.567 1.366-.889.556-1.333 1.245-1.333 2.067zm-5.667 3.033c.845 0 1.561-.294 2.15-.883s.883-1.306.883-2.15c0-.844-.294-1.567-.883-2.167-.589-.6-1.305-.9-2.15-.9a2.9 2.9 0 0 0-2.15.9A2.982 2.982 0 0 0 4.965 8c0 .844.294 1.561.883 2.15s1.306.883 2.15.883z" fill-rule="nonzero"/></symbol><symbol id="envelope" viewBox="0 0 16 16"><path d="M1 4.067c-.356-.2-.511-.423-.467-.667.023-.156.167-.233.434-.233h14.1c.422 0 .533.177.333.533a.917.917 0 0 1-.4.367c-.156.066-1.222.633-3.2 1.7C9.822 6.833 8.811 7.378 8.767 7.4c-.178.111-.434.167-.767.167-.311 0-.567-.056-.767-.167-.044-.022-1.055-.567-3.033-1.633C2.222 4.7 1.156 4.133 1 4.067zm14.167 1.666c.222-.111.333-.055.333.167v6.133c0 .178-.094.356-.283.534-.189.177-.373.266-.55.266H1.333c-.177 0-.361-.089-.55-.266-.189-.178-.283-.356-.283-.534V5.9c0-.222.111-.278.333-.167l6.4 3.334c.2.111.456.166.767.166s.567-.055.767-.166l6.4-3.334z" fill-rule="nonzero"/></symbol><symbol id="hamburger" viewBox="0 0 24 24"><path d="M23 17a1 1 0 0 1 0 2H1a1 1 0 0 1 0-2h22zm0-6a1 1 0 0 1 0 2H1a1 1 0 0 1 0-2h22zm0-6.045a1 1 0 0 1 0 2H1a1 1 0 0 1 0-2h22z"/></symbol><symbol id="hireup" viewBox="0 0 96 30"><path d="M82.813 30h-4.912V6.997h4.912v2.178C83.275 7.756 85.22 6.7 87.758 6.7 92.473 6.7 96 10.495 96 15.314c0 4.785-3.527 8.613-8.242 8.613-2.538 0-4.483-1.023-4.945-2.475V30zM44.209 16.601c.099 1.98 1.813 3.267 4.417 3.267 1.715 0 2.901-.528 4.055-1.617l2.868 2.739c-2.208 2.277-4.615 3.036-7.153 3.036-5.407 0-9.099-3.399-9.099-8.613v-.132c0-5.314 3.824-8.713 9-8.713 5.142 0 8.538 3.762 8.538 8.448 0 0 0 .826-.066 1.585h-12.56zm14.406-9.604h4.912v9.505c0 1.914.989 3.135 2.869 3.135 1.78 0 3.065-1.353 3.065-3.3v-9.34h4.913v10.792c0 1.353.362 1.848 1.219 1.848.231 0 .594-.033.825-.066v4.092c-.495.165-1.418.264-2.209.264-.89 0-1.879-.132-2.703-.594-.528-.33-1.187-.858-1.484-1.782-.725 1.419-2.308 2.442-4.879 2.442-4.187 0-6.528-2.607-6.528-6.897V6.997zm-34.747 0v10.792c0 1.188.264 1.749 1.121 1.749.198 0 .527-.033.593-.066v4.191c-.165.066-.923.264-2.275.264-2.637 0-4.351-1.254-4.351-4.686v-7.754h-1.568v-4.49h6.48zM4.912 23.63H0V.627h4.912V9.01c.659-1.419 2.44-2.376 4.649-2.376 3.956 0 6.164 2.607 6.164 6.897v4.192c0 1.221.198 1.749 1.088 1.749.198 0 .429-.033.495-.033v4.158c-.099.033-.824.231-2.11.231-2.604 0-4.385-1.254-4.385-4.752v-4.951c0-1.914-.989-3.135-2.835-3.135-1.78 0-3.066 1.353-3.066 3.3v9.34zm27.626 0h-4.912V6.997h4.912v2.277c.758-1.683 2.539-2.64 4.813-2.64.462 0 1.022.066 1.286.099v4.62a7.938 7.938 0 0 0-1.648-.165c-2.802 0-4.451 1.617-4.451 4.324v8.118zm54.33-4.158c2.374 0 4.22-1.815 4.22-4.158 0-2.344-1.846-4.159-4.22-4.159-2.407 0-4.352 1.815-4.352 4.159 0 2.343 1.945 4.158 4.352 4.158zM51.89 13.399c0-1.518-1.615-2.772-3.593-2.772-2.143 0-3.89 1.221-4.022 2.772h7.615zM21.395 5.578c1.55 0 2.803-1.222 2.803-2.773A2.78 2.78 0 0 0 21.395 0a2.801 2.801 0 0 0-2.802 2.805c0 1.551 1.286 2.773 2.802 2.773z" fill-rule="nonzero"/></symbol><symbol id="key" viewBox="0 0 16 16"><path d="M13.908 3.97c.205 1.183.061 2.28-.431 3.291-.492 1.01-1.261 1.607-2.307 1.79a5.978 5.978 0 0 1-2 .031l-1.815 2.969-1.077.184-1.599 2.541a.863.863 0 0 1-.708.489l-1.169.215a.341.341 0 0 1-.338-.062.5.5 0 0 1-.185-.336l-.246-1.5c-.082-.306-.02-.592.185-.857l3.968-5.908c-.246-.511-.441-1.123-.584-1.837-.185-1.082.087-2.036.815-2.862C7.145 1.291 8.093.776 9.262.572c1.087-.204 2.087.026 3 .689.912.663 1.461 1.566 1.646 2.709zM11.97 5.133c.307-.449.415-.944.323-1.485a1.887 1.887 0 0 0-.785-1.27c-.431-.326-.902-.439-1.415-.337a1.893 1.893 0 0 0-1.23.827c-.082.122-.144.24-.185.352a.453.453 0 0 0-.015.306c.03.092.056.173.076.245.021.071.088.158.2.26.113.102.206.179.277.23a38.284 38.284 0 0 1 .692.505c.062.041.175.122.339.245.164.122.282.204.354.245.071.04.169.102.292.183.123.082.22.123.292.123.072 0 .159-.005.262-.016a.487.487 0 0 0 .276-.122c.083-.072.165-.168.247-.291z" fill-rule="nonzero"/></symbol><symbol id="spacer" viewBox="0 0 16 16"/><symbol id="warning-sign" viewBox="0 0 16 16"><path d="M15.42 13.831c.104.167.104.343 0 .53a.515.515 0 0 1-.468.25H1.044a.487.487 0 0 1-.436-.25c-.135-.187-.146-.363-.031-.53L7.531 1.638c.083-.187.239-.28.467-.28.229 0 .385.093.468.28l6.954 12.193zm-6.548-.779v-1.559H7.156v1.559h1.716zm0-2.713V5.661H7.156v4.678h1.716z" fill-rule="nonzero"/></symbol></svg>